
               <svg width="18" height="18" viewBox="0 0 24 24" fill="#1e3a8a" xmlns="http://www.w3.org/2000/svg">
                  <path d="M12 .5a11.5 11.5 0 0 0-3.64 22.42c.58.11.8-.25.8-.56 0-.28-.01-1.02-.02-2-3.26.71-3.95-1.57-3.95-1.57-.53-1.33-1.3-1.68-1.3-1.68-1.06-.72.08-.71.08-.71 1.18.08 1.81 1.22 1.81 1.22 1.04 1.8 2.73 1.28 3.39.98.11-.76.41-1.28.75-1.57-2.6-.3-5.34-1.3-5.34-5.8 0-1.28.46-2.33 1.22-3.15-.12-.3-.53-1.52.12-3.17 0 0 1-.32 3.28 1.2a11.4 11.4 0 0 1 5.97 0c2.28-1.52 3.27-1.2 3.27-1.2.65 1.65.24 2.87.12 3.17.76.82 1.22 1.87 1.22 3.15 0 4.51-2.75 5.49-5.37 5.78.42.36.8 1.08.8 2.18 0 1.57-.02 2.83-.02 3.22 0 .31.21.68.81.56A11.5 11.5 0 0 0 12 .5Z"/>
               </svg>


